# xmcd
#
# Track frame offsets:
#	150
#	13149
#	26555
#	40768
#	53783
#	67621
#	85221
#	97795
#	112813
#	128600
#	148613
#	163866
#	179635
#	195564
#	213207
#
# Disc length: 3018 seconds
#
# Revision: 2
# Processed by: cddbd v1.5.2PL0 Copyright (c) Steve Scherf et al.
# Submitted via: audiograbber 1.83.01
#
DISCID=bd0bc80f
DTITLE=Various Artist - Classic Country - The '90s ...And Beyond [Disc 1]
DYEAR=2003
DGENRE=Country
TTITLE0=Alan Jackson - Don't Rock The Jukebox
TTITLE1=Carlene Carter - Come On Back
TTITLE2=Suzy Bogguss - Drive South
TTITLE3=Pam Tillis - Mr Vida Loca (My Crazy Life)
TTITLE4=Mark Chesnutt - Brother Jukebox
TTITLE5=Collin Raye - Love, Me
TTITLE6=Joe Diffie - If The Devil Danced (In Empty Pockets)
TTITLE7=Dwight Yoakam - Ain't That Lonely Yet
TTITLE8=Kathy Mattea - Walking Away A Winner
TTITLE9=John Michael Montgomery - I Swear
TTITLE10=Patty Loveless - Jealous Bone
TTITLE11=Doug Stone - Jukebox With A Country Song
TTITLE12=Clint Black - The Shoes You're Wearing
TTITLE13=Tania Kernaghan - When I Ride
TTITLE14=Adam Brand - Dirt Track Cowboy
EXTD=
EXTT0=
EXTT1=
EXTT2=
EXTT3=
EXTT4=
EXTT5=
EXTT6=
EXTT7=
EXTT8=
EXTT9=
EXTT10=
EXTT11=
EXTT12=
EXTT13=
EXTT14=
PLAYORDER=
